<svg width="168" height="41" viewBox="0 0 168 41" fill="none" xmlns="http://www.w3.org/2000/svg">
<g clip-path="url(#clip0_2_6)" filter="url(#filter0_d_2_6)">
<path d="M16.475 25.42C14.0017 25.42 11.8783 24.895 10.105 23.845C8.33167 22.7717 6.96667 21.29 6.01 19.4C5.05333 17.4867 4.575 15.2817 4.575 12.785C4.575 10.2883 5.05333 8.08333 6.01 6.17C6.96667 4.25667 8.33167 2.76333 10.105 1.69C11.8783 0.616665 14.0017 0.079998 16.475 0.079998C19.415 0.079998 21.8183 0.814997 23.685 2.285C25.575 3.73167 26.7533 5.77333 27.22 8.41H22.285C21.9817 7.08 21.3283 6.04167 20.325 5.295C19.345 4.525 18.0383 4.14 16.405 4.14C14.1417 4.14 12.3683 4.91 11.085 6.45C9.80167 7.99 9.16 10.1017 9.16 12.785C9.16 15.4683 9.80167 17.58 11.085 19.12C12.3683 20.6367 14.1417 21.395 16.405 21.395C18.0383 21.395 19.345 21.045 20.325 20.345C21.3283 19.6217 21.9817 18.63 22.285 17.37H27.22C26.7533 19.89 25.575 21.8617 23.685 23.285C21.8183 24.7083 19.415 25.42 16.475 25.42ZM36.3657 25.42C34.8723 25.42 33.6473 25.1867 32.6907 24.72C31.734 24.23 31.0223 23.5883 30.5557 22.795C30.089 22.0017 29.8557 21.1267 29.8557 20.17C29.8557 18.56 30.4857 17.2533 31.7457 16.25C33.0057 15.2467 34.8957 14.745 37.4157 14.745H41.8257V14.325C41.8257 13.135 41.4873 12.26 40.8107 11.7C40.134 11.14 39.294 10.86 38.2907 10.86C37.3807 10.86 36.5873 11.0817 35.9107 11.525C35.234 11.945 34.814 12.575 34.6507 13.415H30.2757C30.3923 12.155 30.8123 11.0583 31.5357 10.125C32.2823 9.19167 33.239 8.48 34.4057 7.99C35.5723 7.47667 36.879 7.22 38.3257 7.22C40.799 7.22 42.7473 7.83833 44.1707 9.075C45.594 10.3117 46.3057 12.0617 46.3057 14.325V25H42.4907L42.0707 22.2C41.5573 23.1333 40.834 23.9033 39.9007 24.51C38.9907 25.1167 37.8123 25.42 36.3657 25.42ZM37.3807 21.92C38.664 21.92 39.6557 21.5 40.3557 20.66C41.079 19.82 41.534 18.7817 41.7207 17.545H37.9057C36.7157 17.545 35.864 17.7667 35.3507 18.21C34.8373 18.63 34.5807 19.155 34.5807 19.785C34.5807 20.4617 34.8373 20.9867 35.3507 21.36C35.864 21.7333 36.5407 21.92 37.3807 21.92ZM57.0559 25.42C55.5159 25.42 54.1625 25.175 52.9959 24.685C51.8292 24.1717 50.8959 23.4717 50.1959 22.585C49.4959 21.6983 49.0759 20.6717 48.9359 19.505H53.4509C53.5909 20.1817 53.9642 20.765 54.5709 21.255C55.2009 21.7217 56.0059 21.955 56.9859 21.955C57.9659 21.955 58.6775 21.7567 59.1209 21.36C59.5875 20.9633 59.8209 20.5083 59.8209 19.995C59.8209 19.2483 59.4942 18.7467 58.8409 18.49C58.1875 18.21 57.2775 17.9417 56.1109 17.685C55.3642 17.5217 54.6059 17.3233 53.8359 17.09C53.0659 16.8567 52.3542 16.565 51.7009 16.215C51.0709 15.8417 50.5575 15.375 50.1609 14.815C49.7642 14.2317 49.5659 13.52 49.5659 12.68C49.5659 11.14 50.1725 9.845 51.3859 8.795C52.6225 7.745 54.3492 7.22 56.5659 7.22C58.6192 7.22 60.2525 7.69833 61.4659 8.655C62.7025 9.61167 63.4375 10.93 63.6709 12.61H59.4359C59.1792 11.3267 58.2109 10.685 56.5309 10.685C55.6909 10.685 55.0375 10.8483 54.5709 11.175C54.1275 11.5017 53.9059 11.91 53.9059 12.4C53.9059 12.9133 54.2442 13.3217 54.9209 13.625C55.5975 13.9283 56.4959 14.2083 57.6159 14.465C58.8292 14.745 59.9375 15.06 60.9409 15.41C61.9675 15.7367 62.7842 16.2383 63.3909 16.915C63.9975 17.5683 64.3009 18.5133 64.3009 19.75C64.3242 20.8233 64.0442 21.7917 63.4609 22.655C62.8775 23.5183 62.0375 24.195 60.9409 24.685C59.8442 25.175 58.5492 25.42 57.0559 25.42ZM74.7577 25C72.9377 25 71.4793 24.5567 70.3827 23.67C69.286 22.7833 68.7377 21.2083 68.7377 18.945V11.385H65.7627V7.64H68.7377L69.2627 2.985H73.2177V7.64H77.9077V11.385H73.2177V18.98C73.2177 19.82 73.3927 20.4033 73.7427 20.73C74.116 21.0333 74.746 21.185 75.6327 21.185H77.8027V25H74.7577ZM87.0391 25.42C85.5458 25.42 84.3208 25.1867 83.3641 24.72C82.4074 24.23 81.6958 23.5883 81.2291 22.795C80.7624 22.0017 80.5291 21.1267 80.5291 20.17C80.5291 18.56 81.1591 17.2533 82.4191 16.25C83.6791 15.2467 85.5691 14.745 88.0891 14.745H92.4991V14.325C92.4991 13.135 92.1608 12.26 91.4841 11.7C90.8074 11.14 89.9674 10.86 88.9641 10.86C88.0541 10.86 87.2608 11.0817 86.5841 11.525C85.9074 11.945 85.4874 12.575 85.3241 13.415H80.9491C81.0658 12.155 81.4858 11.0583 82.2091 10.125C82.9558 9.19167 83.9124 8.48 85.0791 7.99C86.2458 7.47667 87.5524 7.22 88.9991 7.22C91.4724 7.22 93.4208 7.83833 94.8441 9.075C96.2674 10.3117 96.9791 12.0617 96.9791 14.325V25H93.1641L92.7441 22.2C92.2308 23.1333 91.5074 23.9033 90.5741 24.51C89.6641 25.1167 88.4858 25.42 87.0391 25.42ZM88.0541 21.92C89.3374 21.92 90.3291 21.5 91.0291 20.66C91.7524 19.82 92.2074 18.7817 92.3941 17.545H88.5791C87.3891 17.545 86.5374 17.7667 86.0241 18.21C85.5108 18.63 85.2541 19.155 85.2541 19.785C85.2541 20.4617 85.5108 20.9867 86.0241 21.36C86.5374 21.7333 87.2141 21.92 88.0541 21.92ZM103.778 25L98.7034 7.64H103.148L106.158 20.135L109.658 7.64H114.628L118.128 20.135L121.173 7.64H125.618L120.508 25H115.853L112.143 12.015L108.433 25H103.778ZM132.841 25.42C131.348 25.42 130.123 25.1867 129.166 24.72C128.21 24.23 127.498 23.5883 127.031 22.795C126.565 22.0017 126.331 21.1267 126.331 20.17C126.331 18.56 126.961 17.2533 128.221 16.25C129.481 15.2467 131.371 14.745 133.891 14.745H138.301V14.325C138.301 13.135 137.963 12.26 137.286 11.7C136.61 11.14 135.77 10.86 134.766 10.86C133.856 10.86 133.063 11.0817 132.386 11.525C131.71 11.945 131.29 12.575 131.126 13.415H126.751C126.868 12.155 127.288 11.0583 128.011 10.125C128.758 9.19167 129.715 8.48 130.881 7.99C132.048 7.47667 133.355 7.22 134.801 7.22C137.275 7.22 139.223 7.83833 140.646 9.075C142.07 10.3117 142.781 12.0617 142.781 14.325V25H138.966L138.546 22.2C138.033 23.1333 137.31 23.9033 136.376 24.51C135.466 25.1167 134.288 25.42 132.841 25.42ZM133.856 21.92C135.14 21.92 136.131 21.5 136.831 20.66C137.555 19.82 138.01 18.7817 138.196 17.545H134.381C133.191 17.545 132.34 17.7667 131.826 18.21C131.313 18.63 131.056 19.155 131.056 19.785C131.056 20.4617 131.313 20.9867 131.826 21.36C132.34 21.7333 133.016 21.92 133.856 21.92ZM147.945 32.7L151.97 23.845H150.92L144.165 7.64H149.03L153.895 19.855L158.97 7.64H163.73L152.705 32.7H147.945Z" fill="white"/>
</g>
<defs>
<filter id="filter0_d_2_6" x="0" y="0" width="168" height="41" filterUnits="userSpaceOnUse" color-interpolation-filters="sRGB">
<feFlood flood-opacity="0" result="BackgroundImageFix"/>
<feColorMatrix in="SourceAlpha" type="matrix" values="0 0 0 0 0 0 0 0 0 0 0 0 0 0 0 0 0 0 127 0" result="hardAlpha"/>
<feOffset dy="4"/>
<feGaussianBlur stdDeviation="2"/>
<feComposite in2="hardAlpha" operator="out"/>
<feColorMatrix type="matrix" values="0 0 0 0 0 0 0 0 0 0 0 0 0 0 0 0 0 0 0.25 0"/>
<feBlend mode="normal" in2="BackgroundImageFix" result="effect1_dropShadow_2_6"/>
<feBlend mode="normal" in="SourceGraphic" in2="effect1_dropShadow_2_6" result="shape"/>
</filter>
<clipPath id="clip0_2_6">
<rect width="160" height="33" fill="white" transform="translate(4)"/>
</clipPath>
</defs>
</svg>


