<svg width="24" height="26" viewBox="0 0 24 26" fill="none" xmlns="http://www.w3.org/2000/svg">
<path d="M14.3209 15.3932C13.8407 14.8866 12.9973 14.5618 12.0016 14.5618C11.0059 14.5618 10.1625 14.8866 9.6823 15.3932C9.4318 15.6576 9.2993 15.9286 9.2575 16.3147C9.1767 17.0624 9.2221 17.7061 9.3097 18.7353C9.3931 19.716 9.5516 21.0239 9.7583 22.3559C9.9055 23.3038 10.025 23.8154 10.1339 24.1818C10.3104 24.7755 10.97 25.2948 12.0016 25.2948C13.0331 25.2948 13.6928 24.7754 13.8693 24.1818C13.9781 23.8154 14.0977 23.3038 14.2448 22.3559C14.4516 21.0239 14.61 19.716 14.6935 18.7353C14.7811 17.706 14.8265 17.0622 14.7456 16.3147C14.7039 15.9288 14.5714 15.6576 14.3209 15.3932ZM9.3852 10.8821C9.3852 12.3284 10.5577 13.5009 12.0041 13.5009C13.4505 13.5009 14.623 12.3284 14.623 10.8821C14.623 9.43568 13.4505 8.26318 12.0041 8.26318C10.5577 8.26318 9.3852 9.43568 9.3852 10.8821ZM11.9716 0.546922C5.84669 0.564352 0.827902 5.53329 0.752102 11.6579C0.690552 16.6192 3.85762 20.8631 8.28 22.4187C8.3873 22.4564 8.4963 22.3673 8.4794 22.2548C8.4214 21.8695 8.3667 21.4824 8.3165 21.1018C8.2987 20.9673 8.213 20.8513 8.0887 20.797C4.5933 19.2699 2.15251 15.7643 2.19168 11.7036C2.24305 6.37465 6.5946 2.03024 11.9236 1.98713C17.3714 1.94313 21.8174 6.36207 21.8174 11.7999C21.8174 15.8199 19.3873 19.2825 15.9191 20.7974C15.7949 20.8517 15.7097 20.968 15.692 21.1025C15.6418 21.4829 15.5871 21.8699 15.5292 22.2548C15.5122 22.3673 15.6212 22.4564 15.7285 22.4188C20.1086 20.8781 23.2573 16.7002 23.2573 11.8C23.257 5.58403 18.1914 0.529122 11.9716 0.546922ZM11.7683 5.70942C15.2404 5.575 18.1079 8.36058 18.1079 11.8033C18.1079 13.5542 17.3661 15.135 16.1805 16.2482C16.0799 16.3426 16.0258 16.4766 16.0336 16.6143C16.0572 17.0331 16.0486 17.4401 16.0207 17.8997C16.0132 18.0221 16.1506 18.1003 16.2519 18.0313C18.2401 16.6726 19.5478 14.388 19.5478 11.8033C19.5478 7.54768 16.0031 4.10427 11.7112 4.27061C7.7226 4.42525 4.52259 7.71378 4.47147 11.7052C4.43789 14.3302 5.7536 16.6558 7.7674 18.0315C7.8685 18.1006 8.0054 18.0223 7.9979 17.8999C7.9699 17.4401 7.9614 17.0331 7.9849 16.6143C7.9927 16.4767 7.9388 16.3427 7.8384 16.2485C6.6158 15.1006 5.86501 13.4557 5.91282 11.6397C5.99701 8.44388 8.5736 5.83316 11.7683 5.70942Z" fill="white"/>
</svg>
